<?xml version="1.0" encoding="utf-8"?>
<!-- Generator: Adobe Illustrator 16.0.0, SVG Export Plug-In . SVG Version: 6.00 Build 0)  -->
<!DOCTYPE svg PUBLIC "-//W3C//DTD SVG 1.1//EN" "http://www.w3.org/Graphics/SVG/1.1/DTD/svg11.dtd">
<svg version="1.1" id="Capa_1" xmlns="http://www.w3.org/2000/svg" xmlns:xlink="http://www.w3.org/1999/xlink" x="0px" y="0px"
	 width="130px" height="130px" viewBox="0 0 130 130" enable-background="new 0 0 130 130" xml:space="preserve">
<path fill="#F2BE3E" d="M65.096,1.532c34.977,0,63.332,28.354,63.332,63.334c0,34.977-28.355,63.332-63.332,63.332
	c-34.979,0-63.334-28.355-63.334-63.332C1.761,29.886,30.117,1.532,65.096,1.532"/>
<circle fill="none" stroke="#FFFFFF" stroke-width="2" stroke-linecap="round" stroke-linejoin="round" stroke-miterlimit="10" stroke-dasharray="4" cx="65.094" cy="64.865" r="39.103"/>
<path fill="none" stroke="#FFFFFF" stroke-width="2" stroke-linecap="round" stroke-linejoin="round" stroke-miterlimit="10" stroke-dasharray="4" d="
	M103.816,62.986c0,9.44-17.508,17.094-39.104,17.094c-21.596,0-39.103-7.653-39.103-17.094"/>
<path fill="none" stroke="#FFFFFF" stroke-width="2" stroke-linecap="round" stroke-linejoin="round" stroke-miterlimit="10" stroke-dasharray="4" d="
	M25.62,64.865c0-9.44,17.507-17.094,39.104-17.094c21.596,0,39.103,7.653,39.103,17.094"/>
<g>
	<path fill="#338E6D" d="M76.354,53.387c0,2.093-1.695,3.789-3.789,3.789H56.881c-2.092,0-3.789-1.696-3.789-3.789l1.895-18.386
		c0-2.093,1.696-3.789,3.789-3.789h11.896c2.093,0,3.788,1.696,3.788,3.789L76.354,53.387z"/>
	<path fill="#338E6D" d="M68.48,11.805c0,0-5.832,6.557-13.986,6.815c0,0.001,0,0.003,0,0.003c0,5.649,4.58,10.229,10.229,10.229
		c5.65,0,10.228-4.579,10.228-10.228c0-0.139-0.016-0.274-0.021-0.411C73.197,17.056,68.48,13.731,68.48,11.805z"/>
	<path fill="#2C5D68" d="M64.723,8.396c-5.647,0-10.226,4.577-10.229,10.225c8.154-0.259,13.986-6.815,13.986-6.815
		c0,1.927,4.717,5.251,6.45,6.408C74.713,12.756,70.234,8.396,64.723,8.396z"/>
</g>
<g>
	<path fill="#338E6D" d="M37.24,86.919c0,2.093-1.696,3.789-3.789,3.789H17.768c-2.092,0-3.789-1.696-3.789-3.789l1.895-18.386
		c0-2.093,1.696-3.789,3.789-3.789h11.896c2.092,0,3.789,1.696,3.789,3.789L37.24,86.919z"/>
	<path fill="#338E6D" d="M29.366,45.337c0,0-5.831,6.557-13.985,6.815c0,0.001,0,0.003,0,0.003c0,5.649,4.58,10.229,10.229,10.229
		c5.649,0,10.228-4.579,10.228-10.228c0-0.139-0.015-0.274-0.021-0.411C34.083,50.588,29.366,47.264,29.366,45.337z"/>
	<path fill="#2C5D68" d="M25.609,41.928c-5.647,0-10.226,4.577-10.229,10.225c8.154-0.259,13.985-6.815,13.985-6.815
		c0,1.927,4.717,5.251,6.451,6.408C35.599,46.288,31.12,41.928,25.609,41.928z"/>
</g>
<g>
	<path fill="#338E6D" d="M119.74,86.919c0,2.093-1.696,3.789-3.789,3.789h-15.684c-2.092,0-3.789-1.696-3.789-3.789l1.895-18.386
		c0-2.093,1.696-3.789,3.789-3.789h11.895c2.093,0,3.789,1.696,3.789,3.789L119.74,86.919z"/>
	<path fill="#338E6D" d="M111.866,45.337c0,0-5.831,6.557-13.985,6.815c0,0.001,0,0.003,0,0.003c0,5.649,4.58,10.229,10.229,10.229
		c5.649,0,10.229-4.579,10.229-10.228c0-0.139-0.016-0.274-0.021-0.411C116.583,50.588,111.866,47.264,111.866,45.337z"/>
	<path fill="#2C5D68" d="M108.109,41.928c-5.647,0-10.227,4.577-10.229,10.225c8.154-0.259,13.985-6.815,13.985-6.815
		c0,1.927,4.717,5.251,6.45,6.408C118.1,46.288,113.62,41.928,108.109,41.928z"/>
</g>
<g>
	<path fill="#338E6D" d="M76.354,116.502c0,2.093-1.695,3.789-3.789,3.789H56.881c-2.092,0-3.789-1.696-3.789-3.789l1.895-18.386
		c0-2.093,1.696-3.789,3.789-3.789h11.896c2.093,0,3.788,1.696,3.788,3.789L76.354,116.502z"/>
	<path fill="#338E6D" d="M68.48,74.92c0,0-5.832,6.557-13.986,6.815v0.003c0,5.649,4.58,10.229,10.229,10.229
		c5.65,0,10.228-4.579,10.228-10.228c0-0.139-0.016-0.274-0.021-0.411C73.197,80.171,68.48,76.847,68.48,74.92z"/>
	<path fill="#2C5D68" d="M64.723,71.511c-5.647,0-10.226,4.577-10.229,10.225c8.154-0.259,13.986-6.815,13.986-6.815
		c0,1.927,4.717,5.251,6.45,6.408C74.713,75.871,70.234,71.511,64.723,71.511z"/>
</g>
</svg>
