<?xml version="1.0" encoding="utf-8"?>
<!-- Generator: Adobe Illustrator 16.0.0, SVG Export Plug-In . SVG Version: 6.00 Build 0)  -->
<!DOCTYPE svg PUBLIC "-//W3C//DTD SVG 1.1//EN" "http://www.w3.org/Graphics/SVG/1.1/DTD/svg11.dtd">
<svg version="1.1" id="Capa_1" xmlns="http://www.w3.org/2000/svg" xmlns:xlink="http://www.w3.org/1999/xlink" x="0px" y="0px"
	 width="130px" height="130px" viewBox="0 0 130 130" enable-background="new 0 0 130 130" xml:space="preserve">
<g>
	<g>
		<circle fill="#E84849" cx="65.001" cy="64.532" r="63.333"/>
	</g>
</g>
<g>
	<path fill="#505251" d="M71.293,95.332c-1.803-5.244-2.822-6.609-6.248-6.609c-3.379,0-4.553,1.732-6.245,6.609
		c-5.77,0.559-9.818,1.871-9.818,3.397c0,2.036,7.191,3.687,16.063,3.687c8.873,0,16.064-1.65,16.064-3.687
		C81.109,97.203,77.062,95.893,71.293,95.332z"/>
</g>
<g>
	<g>
		<path fill="#3D4040" d="M105.699,85.786c0,2.685-2.176,4.86-4.857,4.86c0,0-19.994,2.816-36.85,2.816
			c-12.903,0-34.83-2.816-34.83-2.816c-2.685,0-4.86-2.176-4.86-4.86V37.798c0-2.684,2.175-4.858,4.86-4.858h71.68
			c2.682,0,4.857,2.175,4.857,4.858V85.786z"/>
	</g>
</g>
<g>
	<rect x="27.584" y="36.447" fill="#C6C6C5" width="74.66" height="50.496"/>
</g>
<g>
	<g>
		<g>
			<path fill="none" stroke="#479970" stroke-width="4" stroke-linecap="round" stroke-linejoin="round" d="M49.993,68.982
				c9.386,12.608,25.456,12.526,31.976-3.867"/>
			<g>
				<polygon fill="#479970" points="48.705,79.323 50.688,69.938 60.072,71.925 56.931,67.1 47.548,65.115 45.564,74.498 				"/>
			</g>
		</g>
	</g>
	<g>
		<g>
			<path fill="none" stroke="#479970" stroke-width="4" stroke-linecap="round" stroke-linejoin="round" d="M80.1,55.421
				c-9.387-12.607-25.457-12.525-31.975,3.867"/>
			<g>
				<polygon fill="#479970" points="81.387,45.08 79.404,54.466 70.02,52.479 73.162,57.304 82.545,59.288 84.527,49.905 				"/>
			</g>
		</g>
	</g>
</g>
</svg>
